<svg xmlns="http://www.w3.org/2000/svg" width="64" height="64" viewBox="0 0 160 180" role="img" aria-label="Employee Benefit Program favicon">
  <defs>
    <linearGradient id="shieldGradient" x1="24" y1="16" x2="138" y2="166" gradientUnits="userSpaceOnUse">
      <stop offset="0" stop-color="#0B2A8A"/>
      <stop offset="0.55" stop-color="#1D4ED8"/>
      <stop offset="1" stop-color="#3B82F6"/>
    </linearGradient>
  </defs>
  <path d="M80 8 142 31v55c0 39-24 67-62 86-38-19-62-47-62-86V31L80 8Z" fill="url(#shieldGradient)"/>
  <path d="M80 21 130 40v46c0 31-19 54-50 70-31-16-50-39-50-70V40L80 21Z" fill="none" stroke="#91B9FF" stroke-width="4" stroke-linejoin="round"/>
  <circle cx="80" cy="50" r="10" fill="#FFFFFF"/>
  <circle cx="53" cy="62" r="8" fill="#DCEAFF"/>
  <circle cx="107" cy="62" r="8" fill="#DCEAFF"/>
  <path d="M62 83c2-14 9-22 18-22s16 8 18 22M39 86c2-11 7-17 14-17 6 0 11 4 14 12M93 81c3-8 8-12 14-12 7 0 12 6 14 17" fill="none" stroke="#EAF2FF" stroke-width="7" stroke-linecap="round"/>
  <path d="M41 106 80 78l39 28M51 102v30l14 10h30l14-10v-30M73 142v-24h14v24" fill="none" stroke="#FFFFFF" stroke-width="7" stroke-linecap="round" stroke-linejoin="round"/>
</svg>
