<svg xmlns="http://www.w3.org/2000/svg" width="160" height="180" viewBox="0 0 160 180" role="img" aria-label="Employee Benefit Program shield logo">
  <defs>
    <linearGradient id="shieldGradient" x1="24" y1="16" x2="138" y2="166" gradientUnits="userSpaceOnUse">
      <stop offset="0" stop-color="#0B2A8A"/>
      <stop offset="0.55" stop-color="#1D4ED8"/>
      <stop offset="1" stop-color="#3B82F6"/>
    </linearGradient>
    <linearGradient id="detailGradient" x1="46" y1="42" x2="112" y2="142" gradientUnits="userSpaceOnUse">
      <stop offset="0" stop-color="#FFFFFF"/>
      <stop offset="1" stop-color="#CFE2FF"/>
    </linearGradient>
    <filter id="shieldGlow" x="-35%" y="-30%" width="170%" height="175%">
      <feDropShadow dx="0" dy="9" stdDeviation="9" flood-color="#1D4ED8" flood-opacity="0.28"/>
    </filter>
  </defs>

  <g filter="url(#shieldGlow)">
    <path d="M80 8 142 31v55c0 39-24 67-62 86-38-19-62-47-62-86V31L80 8Z" fill="url(#shieldGradient)"/>
    <path d="M80 21 130 40v46c0 31-19 54-50 70-31-16-50-39-50-70V40L80 21Z" fill="none" stroke="#8BB7FF" stroke-width="3.5" stroke-linejoin="round" opacity="0.9"/>

    <circle cx="80" cy="50" r="10" fill="url(#detailGradient)"/>
    <circle cx="53" cy="62" r="8" fill="#DCEAFF"/>
    <circle cx="107" cy="62" r="8" fill="#DCEAFF"/>
    <path d="M62 83c2-14 9-22 18-22s16 8 18 22" fill="none" stroke="#EAF2FF" stroke-width="8" stroke-linecap="round"/>
    <path d="M39 86c2-11 7-17 14-17 6 0 11 4 14 12" fill="none" stroke="#CFE2FF" stroke-width="7" stroke-linecap="round"/>
    <path d="M93 81c3-8 8-12 14-12 7 0 12 6 14 17" fill="none" stroke="#CFE2FF" stroke-width="7" stroke-linecap="round"/>

    <path d="M41 106 80 78l39 28" fill="none" stroke="#FFFFFF" stroke-width="8" stroke-linecap="round" stroke-linejoin="round"/>
    <path d="M51 102v30l14 10h30l14-10v-30" fill="none" stroke="#EAF2FF" stroke-width="6" stroke-linecap="round" stroke-linejoin="round"/>
    <path d="M73 142v-24h14v24" fill="none" stroke="#FFFFFF" stroke-width="6" stroke-linejoin="round"/>
  </g>
</svg>
